<svg width="60" height="60" viewBox="0 0 60 60" fill="none" xmlns="http://www.w3.org/2000/svg">
<path d="M5.2575 35.5038L9.4425 38.3346C9.6625 38.482 9.8825 38.4796 10.1025 38.3272L13.68 35.8724C13.9969 35.6542 14.2558 35.3642 14.4348 35.0272C14.6138 34.6901 14.7076 34.3158 14.7084 33.9361C14.7091 33.5564 14.6167 33.1823 14.439 32.8457C14.2613 32.509 14.0035 32.2197 13.6875 32.0022L8.355 28.3089C8.095 28.132 8.095 27.9551 8.355 27.7782L11.7825 25.4561C11.9875 25.3135 12.195 25.3111 12.405 25.4487L16.5 28.1173C16.67 28.2303 16.8375 28.2279 17.0025 28.1099L22.185 24.5714C22.49 24.3601 22.6475 24.4387 22.6575 24.8073L22.7625 29.599C22.7651 29.6941 22.7431 29.7884 22.6985 29.8734C22.654 29.9584 22.5883 30.0314 22.5075 30.0855L19.83 31.9432C19.6604 32.0621 19.5384 32.2341 19.485 32.4298C18.745 35.1082 19.6375 36.9241 22.1625 37.8775C22.3875 37.9611 22.605 37.9439 22.815 37.8259L27.405 35.209C27.5095 35.1512 27.5965 35.0662 27.6571 34.9626C27.7177 34.8589 27.7498 34.7404 27.75 34.6192V22.8096C27.7502 22.6468 27.7923 22.4869 27.8723 22.3451C27.9524 22.2032 28.0677 22.084 28.2075 21.9987L35.2575 17.7009C35.4775 17.5682 35.5875 17.3766 35.5875 17.1259L35.565 11.199C35.565 11.1476 35.5794 11.0971 35.6065 11.0532C35.6337 11.0093 35.6727 10.9736 35.7192 10.95C35.7657 10.9264 35.8178 10.9158 35.87 10.9194C35.9222 10.923 35.9723 10.9407 36.015 10.9705L40.1775 13.8528C40.2769 13.9208 40.3582 14.0119 40.4143 14.1184C40.4705 14.2249 40.4999 14.3437 40.5 14.4647V17.4355C40.5 17.6911 40.6025 17.895 40.8075 18.0474L43.1775 19.7798C43.267 19.8462 43.3758 19.8833 43.4887 19.886C43.6016 19.8886 43.713 19.8566 43.8075 19.7945L47.55 17.2512C47.663 17.1722 47.7544 17.0669 47.8159 16.9447C47.8774 16.8224 47.9071 16.6872 47.9025 16.5509L47.775 12.4374C47.765 12.1868 47.655 11.9927 47.445 11.8551L38.7675 6.09769C38.5475 5.95025 38.4375 5.74876 38.4375 5.4932V0.318192C38.4375 -0.0110817 38.5775 -0.0847992 38.8575 0.0970386L52.545 9.06853C52.6468 9.13687 52.7301 9.22834 52.7876 9.33498C52.8451 9.44162 52.8751 9.56019 52.875 9.68039V16.89C52.875 17.0915 52.96 17.2488 53.13 17.3618L59.6775 21.8365C59.8925 21.979 60 22.1805 60 22.441V38.0766C59.9998 38.1679 59.9772 38.2577 59.9341 38.3386C59.891 38.4194 59.8287 38.4889 59.7525 38.541L53.205 42.9862C52.985 43.1336 52.875 43.3376 52.875 43.5981V50.6676C52.875 50.933 52.76 51.1345 52.53 51.2721L38.1675 59.7202C37.9925 59.8283 37.815 59.8283 37.635 59.7202L31.65 56.1965C31.5472 56.1356 31.4621 56.0501 31.403 55.948C31.3438 55.846 31.3127 55.731 31.3125 55.6141V50.8077C31.3125 50.4637 31.4625 50.3777 31.7625 50.5497L37.575 53.926C37.81 54.0636 38.045 54.0636 38.28 53.926L45.015 49.9305C45.0661 49.9001 45.1085 49.8577 45.1384 49.8068C45.1682 49.756 45.1846 49.6984 45.1861 49.6392C45.1876 49.58 45.1741 49.521 45.1469 49.4677C45.1196 49.4143 45.0795 49.3681 45.03 49.3333L39 45.3231C38.9251 45.2735 38.8371 45.247 38.7474 45.247C38.6578 45.247 38.5707 45.2735 38.4975 45.3231L36.09 46.9596C35.825 47.1414 35.5525 47.1488 35.2725 46.9817L31.4775 44.7702C31.1525 44.5785 31.1475 44.3795 31.4625 44.1731L38.3625 39.5362C38.5775 39.3937 38.7925 39.3912 39.0075 39.5288L47.3325 44.9397C47.3867 44.9741 47.4493 44.9935 47.5137 44.9959C47.5781 44.9983 47.642 44.9837 47.6987 44.9536C47.7554 44.9235 47.8028 44.8789 47.8361 44.8246C47.8693 44.7703 47.887 44.7082 47.8875 44.6449L47.9025 40.9958C47.9025 40.7255 48.015 40.5117 48.24 40.3545L54.81 35.8872C55.02 35.7446 55.125 35.5481 55.125 35.2974V25.1096C55.125 24.8639 55.0225 24.6722 54.8175 24.5346L50.565 21.6596C50.35 21.5121 50.135 21.5121 49.92 21.6596L46.4325 24.0333C46.101 24.2587 45.8299 24.5597 45.6425 24.9104C45.455 25.2612 45.3567 25.6513 45.356 26.0476C45.3552 26.4438 45.4521 26.8343 45.6383 27.1857C45.8244 27.5371 46.0943 27.8391 46.425 28.0657L51.6675 31.6705C51.7158 31.7029 51.7551 31.7466 51.782 31.7978C51.8089 31.8489 51.8226 31.906 51.8219 31.9641C51.8211 32.0222 51.806 32.0795 51.7778 32.1311C51.7496 32.1827 51.7092 32.227 51.66 32.2602L48.1875 34.5307C47.9775 34.6684 47.7675 34.6684 47.5575 34.5307L43.665 31.9875C43.395 31.8105 43.125 31.8105 42.855 31.9875L37.8 35.4154C37.475 35.6365 37.3125 35.5505 37.3125 35.1574V30.3952C37.3125 30.1445 37.4175 29.9479 37.6275 29.8054L40.2975 27.933C40.3725 27.8798 40.4344 27.8104 40.4786 27.73C40.5227 27.6496 40.548 27.5602 40.5525 27.4686L40.635 24.3945C40.6376 24.3006 40.6179 24.2073 40.5776 24.1216C40.5373 24.036 40.4774 23.9604 40.4025 23.9006L38.0625 22.0577C37.8675 21.9004 37.6625 21.8856 37.4475 22.0134L32.8425 24.6968C32.5725 24.854 32.4375 25.0875 32.4375 25.3971V37.2288C32.4377 37.3506 32.4068 37.47 32.3478 37.5758C32.2887 37.6816 32.2034 37.7703 32.1 37.8333L24.7425 42.3006C24.4825 42.4579 24.355 42.6864 24.36 42.9862L24.4125 48.6109C24.4126 48.6727 24.3955 48.7333 24.3631 48.7862C24.3306 48.8391 24.2841 48.8823 24.2285 48.9112C24.1729 48.94 24.1104 48.9534 24.0477 48.9498C23.9849 48.9463 23.9243 48.9259 23.8725 48.891L19.8225 46.1119C19.7231 46.0439 19.6418 45.9528 19.5857 45.8463C19.5295 45.7397 19.5001 45.6209 19.5 45.5V42.5144C19.5 42.2589 19.395 42.0549 19.185 41.9026L16.7925 40.1997C16.7047 40.1371 16.5987 40.1029 16.4888 40.1016C16.379 40.1003 16.2703 40.1319 16.1775 40.1923L12.4875 42.7061C12.3175 42.824 12.23 42.9838 12.225 43.1852L12.105 47.542C12.1027 47.6347 12.1241 47.7265 12.1674 47.809C12.2106 47.8914 12.2743 47.9619 12.3525 48.0138L21.105 53.808C21.41 54.0095 21.5625 54.2921 21.5625 54.6558V59.6686C21.5625 60.0126 21.4175 60.0888 21.1275 59.8971L7.53 50.933C7.28 50.7659 7.155 50.5349 7.155 50.2401L7.14 43.1926C7.14 42.9322 7.03 42.7257 6.81 42.5734L0.2625 38.0913C0.0875003 37.9734 0 37.8087 0 37.5974V22.0724C0.000105114 21.9311 0.0349922 21.7922 0.101641 21.6676C0.168289 21.543 0.264691 21.4365 0.3825 21.3573L6.7725 17.0153C6.9875 16.8679 7.0975 16.6639 7.1025 16.4035L7.1775 9.38551C7.17957 9.22997 7.22206 9.07773 7.30087 8.94346C7.37968 8.80918 7.49217 8.69739 7.6275 8.61885L21.72 0.318192C21.97 0.170756 22.22 0.170756 22.47 0.318192L28.35 3.78294C28.4528 3.84389 28.5378 3.93018 28.597 4.03348C28.6561 4.13679 28.6873 4.25362 28.6875 4.37269V9.17173C28.6875 9.55998 28.52 9.65336 28.185 9.45186L22.455 6.05346C22.225 5.91585 21.995 5.91339 21.765 6.04609L14.8725 10.1153C14.8337 10.1387 14.8012 10.1712 14.7782 10.2097C14.7552 10.2483 14.7423 10.2917 14.7408 10.3358C14.7393 10.38 14.7492 10.4235 14.7696 10.4623C14.79 10.5011 14.8203 10.5339 14.8575 10.5576L20.9925 14.6342C21.1975 14.7718 21.4 14.7669 21.6 14.6195L23.9625 12.9019C24.0553 12.8342 24.1668 12.7953 24.2829 12.7901C24.3991 12.7848 24.5146 12.8135 24.615 12.8724L28.53 15.2092C28.85 15.4058 28.8525 15.6073 28.5375 15.8137L21.5925 20.4506C21.3725 20.5931 21.155 20.5931 20.94 20.4506L12.6075 15.0028C12.2775 14.7866 12.115 14.8726 12.12 15.2608L12.2025 18.8509C12.205 18.9959 12.1707 19.1396 12.1027 19.2694C12.0347 19.3993 11.9351 19.5112 11.8125 19.5955L5.19 24.0775C4.98 24.22 4.875 24.4191 4.875 24.6746V34.7814C4.87507 34.9248 4.90993 35.0655 4.97658 35.1913C5.04322 35.3172 5.13964 35.4245 5.2575 35.5038Z" fill="#2E68D9"/>
</svg>
